<svg width="5" height="9" viewBox="0 0 5 9" fill="none" xmlns="http://www.w3.org/2000/svg">
<g id="image" clip-path="url(#clip0_4394_43851)">
<path id="Vector" d="M4.35304 4.58836C4.3996 4.54191 4.43654 4.48674 4.46175 4.42599C4.48696 4.36525 4.49993 4.30013 4.49993 4.23436C4.49993 4.16859 4.48696 4.10347 4.46175 4.04272C4.43654 3.98198 4.3996 3.9268 4.35304 3.88036L1.17104 0.698358C1.07599 0.610334 0.950538 0.56255 0.821014 0.565034C0.691491 0.567518 0.567964 0.620077 0.47636 0.711681C0.384756 0.803285 0.332197 0.926811 0.329713 1.05634C0.327229 1.18586 0.375014 1.31131 0.463038 1.40636L3.29204 4.23436L0.463038 7.06236C0.369151 7.15625 0.316406 7.28358 0.316406 7.41636C0.316406 7.54913 0.369151 7.67647 0.463038 7.77036C0.556924 7.86424 0.684262 7.91699 0.817038 7.91699C0.949814 7.91699 1.07715 7.86424 1.17104 7.77036L4.35304 4.58836Z" fill="black"/>
</g>
<defs>
<clipPath id="clip0_4394_43851">
<rect width="5" height="8" fill="white" transform="translate(0 0.234375)"/>
</clipPath>
</defs>
</svg>
