<svg width="202" height="41" viewBox="0 0 202 41" fill="none" xmlns="http://www.w3.org/2000/svg">
<g id="Frame">
<path id="Vector" d="M45.0977 30.1577H51.4025V10.3846H45.0977V30.1577Z" fill="#0C62F3"/>
<path id="Vector_2" d="M54.6016 30.157H60.0254V22.1647C60.0254 20.4502 60.8238 19.6481 62.1728 19.6481C63.4669 19.6481 63.9901 20.3949 63.9901 21.8605V30.157H69.4139V20.6437C69.4139 17.0487 67.5142 15.3064 64.7884 15.3064C62.3657 15.3064 60.8238 16.4956 60.0254 18.0166V15.6936H54.6016V30.157Z" fill="#0C62F3"/>
<path id="Vector_3" d="M80.7001 15.4454L82.6273 22.6081H78.7452L80.7001 15.4454ZM70.8711 30.1577H76.6803L77.5613 26.8668H83.7837L84.6922 30.1577H91.3L85.1328 10.3846H77.0658L70.8711 30.1577Z" fill="#0C62F3"/>
<path id="Vector_4" d="M100.655 26.3682C99.0031 26.3682 98.1221 25.2344 98.1221 22.9943V22.7732C98.1221 20.5607 99.0307 19.344 100.628 19.344C102.252 19.344 103.188 20.4502 103.188 22.7732V22.9943C103.188 25.2067 102.279 26.3682 100.655 26.3682ZM92.8359 34.9689H98.2598V28.0829C98.9755 29.4933 100.517 30.5165 102.637 30.5165C105.914 30.5165 108.694 28.1105 108.694 23.0497V22.8284C108.694 17.7677 105.941 15.3064 102.665 15.3064C100.49 15.3064 99.0582 16.4402 98.2598 17.7953V15.6936H92.8359V34.9689Z" fill="#0C62F3"/>
<path id="Vector_5" d="M118.452 26.3682C116.8 26.3682 115.919 25.2344 115.919 22.9943V22.7732C115.919 20.5607 116.828 19.344 118.424 19.344C120.049 19.344 120.985 20.4502 120.985 22.7732V22.9943C120.985 25.2067 120.076 26.3682 118.452 26.3682ZM110.633 34.9689H116.057V28.0829C116.773 29.4933 118.314 30.5165 120.434 30.5165C123.711 30.5165 126.491 28.1105 126.491 23.0497V22.8284C126.491 17.7677 123.738 15.3064 120.462 15.3064C118.287 15.3064 116.855 16.4402 116.057 17.7953V15.6936H110.633V34.9689Z" fill="#0C62F3"/>
<path id="Vector_6" d="M136.335 30.5164C141.621 30.5164 144.484 27.4743 144.484 23.7963C144.484 19.3992 141.731 18.1271 136.775 17.6016C134.6 17.325 134.022 16.8826 134.022 15.9423C134.022 15.085 134.683 14.5043 135.977 14.5043C137.298 14.5043 137.987 15.1956 138.124 16.4125H143.906C143.576 12.0983 140.85 10.1072 135.977 10.1072C131.076 10.1072 128.103 12.762 128.103 16.4125C128.103 20.4777 130.03 22.1369 135.702 22.7731C137.821 23.0772 138.51 23.4091 138.51 24.4599C138.51 25.4278 137.794 26.0916 136.335 26.0916C134.297 26.0916 133.692 25.0684 133.581 23.824H127.662C127.8 28.2763 130.773 30.5164 136.335 30.5164Z" fill="#0C62F3"/>
<path id="Vector_7" d="M152.423 30.4904C153.607 30.4904 154.626 30.2692 155.286 30.0755V25.9827C154.818 26.1487 154.433 26.204 153.937 26.204C153.056 26.204 152.533 25.7891 152.533 24.7936V19.3456H155.286V15.6951H152.533V12.7361H147.109V15.6951H145.43V19.3456H147.109V25.3189C147.109 28.9417 149.036 30.4904 152.423 30.4904Z" fill="#0C62F3"/>
<path id="Vector_8" d="M164.66 30.5165C169.149 30.5165 172.673 27.7233 172.673 22.9667V22.7456C172.673 18.0996 169.176 15.3064 164.688 15.3064C160.146 15.3064 156.648 18.1825 156.648 22.8837V23.105C156.648 27.8616 160.173 30.5165 164.66 30.5165ZM164.688 26.5065C162.954 26.5065 162.127 25.2897 162.127 22.939V22.7179C162.127 20.4502 163.036 19.3164 164.688 19.3164C166.368 19.3164 167.166 20.5332 167.166 22.8009V22.9943C167.166 25.2897 166.34 26.5065 164.688 26.5065Z" fill="#0C62F3"/>
<path id="Vector_9" d="M174.57 30.1573H179.993V23.4926C179.993 21.4185 181.619 20.4229 184.619 20.5887V15.5004C182.472 15.4727 180.902 16.3853 179.993 18.6253V15.6939H174.57V30.1573Z" fill="#0C62F3"/>
<path id="Vector_10" d="M189.17 34.9704H194.318L202 15.6951H196.878L194.346 22.9129L191.62 15.6951H185.756L191.51 28.7204L189.17 34.9704Z" fill="#0C62F3"/>
<path id="Vector_11" d="M18.3209 38.794C28.4393 38.794 36.6419 30.4458 36.6419 20.1479C36.6419 9.84988 28.4393 1.50171 18.3209 1.50171C8.20256 1.50171 0 9.84988 0 20.1479C0 30.4458 8.20256 38.794 18.3209 38.794Z" fill="#0C62F3"/>
<path id="Vector_12" d="M6.57812 20.6266C15.2035 18.9364 16.5924 17.5795 18.3223 9.1521C20.0522 17.5795 21.441 18.9364 30.0664 20.6266C21.441 22.3169 20.0522 23.6739 18.3223 32.1012C16.5924 23.6739 15.2035 22.3169 6.57812 20.6266Z" fill="white"/>
</g>
</svg>
