<svg width="25" height="25" viewBox="0 0 25 25" fill="none" xmlns="http://www.w3.org/2000/svg">
<g clip-path="url(#clip0_4394_43901)">
<path d="M24.3906 12.7969C24.3906 6.375 19.1875 1.17188 12.7656 1.17188C6.34375 1.17188 1.14062 6.375 1.14062 12.7969C1.14062 18.5991 5.39172 23.4084 10.9492 24.2812V16.1573H7.99609V12.7969H10.9492V10.2356C10.9492 7.32234 12.6836 5.71312 15.34 5.71312C16.6122 5.71312 17.9425 5.94 17.9425 5.94V8.79938H16.4762C15.0325 8.79938 14.582 9.69563 14.582 10.6148V12.7969H17.8061L17.2905 16.1573H14.582V24.2812C20.1395 23.4084 24.3906 18.5991 24.3906 12.7969Z" fill="#0C62F3"/>
</g>
<defs>
<clipPath id="clip0_4394_43901">
<rect width="24" height="24" fill="white" transform="translate(0.765625 0.796875)"/>
</clipPath>
</defs>
</svg>
