<svg width="23" height="26" viewBox="0 0 23 26" fill="none" xmlns="http://www.w3.org/2000/svg">
<g clip-path="url(#clip0_4394_43904)">
<path d="M21.1924 1.80469H2.332C1.46779 1.80469 0.765625 2.51624 0.765625 3.38972V22.204C0.765625 23.0775 1.46779 23.7891 2.332 23.7891H21.1924C22.0566 23.7891 22.7637 23.0775 22.7637 22.204V3.38972C22.7637 2.51624 22.0566 1.80469 21.1924 1.80469ZM7.41413 20.6484H4.15371V10.1568H7.41905V20.6484H7.41413ZM5.78392 8.72388C4.73804 8.72388 3.89347 7.87493 3.89347 6.83459C3.89347 5.79426 4.73804 4.94531 5.78392 4.94531C6.8249 4.94531 7.67438 5.79426 7.67438 6.83459C7.67438 7.87983 6.82981 8.72388 5.78392 8.72388ZM19.6358 20.6484H16.3754V15.5449C16.3754 14.3279 16.3508 12.7625 14.6813 12.7625C12.9824 12.7625 12.7221 14.0875 12.7221 15.4566V20.6484H9.46172V10.1568H12.5896V11.5897H12.6338C13.0708 10.7653 14.1363 9.8967 15.7223 9.8967C19.022 9.8967 19.6358 12.0706 19.6358 14.8972V20.6484Z" fill="#0C62F3"/>
</g>
<defs>
<clipPath id="clip0_4394_43904">
<rect width="22" height="25.125" fill="white" transform="translate(0.765625 0.234375)"/>
</clipPath>
</defs>
</svg>
