<svg width="23" height="26" viewBox="0 0 23 26" fill="none" xmlns="http://www.w3.org/2000/svg">
<g clip-path="url(#clip0_4394_43907)">
<path d="M20.4067 1.80469H3.12256C1.82133 1.80469 0.765625 2.85974 0.765625 4.16016V21.4336C0.765625 22.734 1.82133 23.7891 3.12256 23.7891H20.4067C21.7079 23.7891 22.7637 22.734 22.7637 21.4336V4.16016C22.7637 2.85974 21.7079 1.80469 20.4067 1.80469ZM18.0056 9.59736C18.0154 9.73477 18.0154 9.87708 18.0154 10.0145C18.0154 14.269 14.7746 19.1714 8.85285 19.1714C7.02622 19.1714 5.33218 18.6414 3.9082 17.7286C4.16844 17.7581 4.41887 17.7679 4.68402 17.7679C6.19148 17.7679 7.57617 17.2575 8.68099 16.3939C7.26683 16.3644 6.07854 15.437 5.67099 14.1611C6.16693 14.2347 6.61376 14.2347 7.12443 14.1022C5.65135 13.8029 4.54654 12.5073 4.54654 10.9419V10.9027C4.97373 11.1431 5.47458 11.2904 5.99998 11.31C5.55826 11.0164 5.19616 10.618 4.94597 10.1505C4.69579 9.68296 4.56531 9.16082 4.56618 8.63064C4.56618 8.03196 4.72331 7.48235 5.00319 7.00635C6.58921 8.95942 8.97069 10.2353 11.6419 10.3727C11.1852 8.18899 12.8203 6.41748 14.7845 6.41748C15.7125 6.41748 16.5472 6.80515 17.1365 7.43328C17.8632 7.29587 18.5605 7.02598 19.1791 6.65793C18.9385 7.40383 18.4328 8.03196 17.765 8.42944C18.4131 8.36074 19.0417 8.17917 19.6211 7.92891C19.1841 8.57175 18.6341 9.14099 18.0056 9.59736Z" fill="#0C62F3"/>
</g>
<defs>
<clipPath id="clip0_4394_43907">
<rect width="22" height="25.125" fill="white" transform="translate(0.765625 0.234375)"/>
</clipPath>
</defs>
</svg>
